<svg width="30" height="25" viewBox="0 0 30 25" fill="none" xmlns="http://www.w3.org/2000/svg">
<path d="M0 12.8839V6.66488C0 5.31044 0.803571 3.03971 3.59263 2.54782C5.95982 2.13342 8.30357 2.13342 8.30357 2.13342C8.30357 2.13342 9.84375 3.13347 8.57143 3.13347C7.29911 3.13347 7.33259 4.66479 8.57143 4.66479C9.81027 4.66479 8.57143 6.13361 8.57143 6.13361L3.58259 11.4151L0 12.8839Z" fill="white"/>
<path d="M4.28571 3.49902H25.7143C25.9646 3.49891 26.2147 3.51373 26.4629 3.54339C26.3788 2.99197 26.1759 2.46218 25.8664 1.98594C25.5569 1.5097 25.1474 1.09689 24.6623 0.772393C24.1773 0.447896 23.6269 0.218435 23.0444 0.0978444C22.4618 -0.0227463 21.8591 -0.0319685 21.2725 0.0707335L3.64955 2.87899H3.62946C2.52326 3.07643 1.53955 3.6606 0.879241 4.51219C1.87406 3.85173 3.06491 3.49754 4.28571 3.49902ZM25.7143 4.99908H4.28571C3.14945 5.00024 2.06009 5.42206 1.25663 6.17199C0.453168 6.92192 0.00124075 7.93871 0 8.99927V20.9998C0.00124075 22.0604 0.453168 23.0772 1.25663 23.8271C2.06009 24.577 3.14945 24.9988 4.28571 25H25.7143C26.8505 24.9988 27.9399 24.577 28.7434 23.8271C29.5468 23.0772 29.9988 22.0604 30 20.9998V8.99927C29.9988 7.93871 29.5468 6.92192 28.7434 6.17199C27.9399 5.42206 26.8505 5.00024 25.7143 4.99908ZM22.5335 16.9996C22.1097 16.9996 21.6954 16.8823 21.343 16.6626C20.9906 16.4428 20.7159 16.1304 20.5537 15.7649C20.3916 15.3995 20.3491 14.9973 20.4318 14.6093C20.5145 14.2214 20.7186 13.865 21.0183 13.5853C21.3179 13.3055 21.6998 13.1151 22.1154 13.0379C22.5311 12.9607 22.962 13.0003 23.3535 13.1517C23.7451 13.3031 24.0797 13.5594 24.3152 13.8884C24.5507 14.2173 24.6763 14.604 24.6763 14.9995C24.6763 15.53 24.4506 16.0387 24.0487 16.4138C23.6468 16.7889 23.1018 16.9996 22.5335 16.9996Z" fill="#D9D9D9"/>
</svg>
