<svg width="26" height="30" viewBox="0 0 26 30" fill="none" xmlns="http://www.w3.org/2000/svg">
<path fill-rule="evenodd" clip-rule="evenodd" d="M7.22222 6.66667C7.22222 4.89856 7.83095 3.20286 8.91449 1.95262C9.99804 0.702379 11.4676 0 13 0C14.5324 0 16.002 0.702379 17.0855 1.95262C18.1691 3.20286 18.7778 4.89856 18.7778 6.66667C18.7778 8.43478 18.1691 10.1305 17.0855 11.3807C16.002 12.631 14.5324 13.3333 13 13.3333C11.4676 13.3333 9.99804 12.631 8.91449 11.3807C7.83095 10.1305 7.22222 8.43478 7.22222 6.66667ZM7.22222 16.6667C5.30677 16.6667 3.46977 17.5446 2.11534 19.1074C0.76091 20.6702 0 22.7899 0 25C0 26.3261 0.456546 27.5979 1.2692 28.5355C2.08186 29.4732 3.18406 30 4.33333 30H21.6667C22.8159 30 23.9181 29.4732 24.7308 28.5355C25.5435 27.5979 26 26.3261 26 25C26 22.7899 25.2391 20.6702 23.8847 19.1074C22.5302 17.5446 20.6932 16.6667 18.7778 16.6667H7.22222Z" fill="black"/>
</svg>
