<svg width="35" height="28" viewBox="0 0 35 28" fill="none" xmlns="http://www.w3.org/2000/svg">
<path d="M0.00136005 6.70844H34.9993V5.16006C34.9993 1.73162 33.3265 0 29.9952 0H5.00544C1.67483 0 0.000680107 1.73162 0.000680107 5.16077L0.00136005 6.70844ZM0.00136005 22.8563C0.00136005 26.2854 1.67415 28 5.00544 28H29.9952C33.3259 28 35 26.2854 35 22.8563V10.4877H0L0.00136005 22.8563ZM5.32436 18.7943V15.7146C5.32436 14.7827 5.94587 14.1165 6.8863 14.1165H10.7908C11.7313 14.1165 12.3528 14.7827 12.3528 15.7146V18.7943C12.3528 19.7432 11.7313 20.3924 10.7908 20.3924H6.88562C5.94519 20.3924 5.32436 19.7432 5.32436 18.7943Z" fill="black"/>
</svg>
