<svg width="34" height="34" viewBox="0 0 34 34" fill="none" xmlns="http://www.w3.org/2000/svg">
<path fill-rule="evenodd" clip-rule="evenodd" d="M17 0C7.61126 0 0 7.61126 0 17C0 26.3887 7.61126 34 17 34C26.3887 34 34 26.3887 34 17C34 7.61126 26.3887 0 17 0ZM22.5349 20.5581C22.0106 20.5581 21.5078 20.7664 21.1371 21.1371C20.7664 21.5078 20.5581 22.0106 20.5581 22.5349C20.5581 23.0591 20.7664 23.5619 21.1371 23.9327C21.5078 24.3034 22.0106 24.5116 22.5349 24.5116C23.0591 24.5116 23.5619 24.3034 23.9327 23.9327C24.3034 23.5619 24.5116 23.0591 24.5116 22.5349C24.5116 22.0106 24.3034 21.5078 23.9327 21.1371C23.5619 20.7664 23.0591 20.5581 22.5349 20.5581ZM9.48837 11.4651C9.48837 10.9409 9.69664 10.4381 10.0673 10.0673C10.4381 9.69664 10.9409 9.48837 11.4651 9.48837C11.9894 9.48837 12.4922 9.69664 12.8629 10.0673C13.2336 10.4381 13.4419 10.9409 13.4419 11.4651C13.4419 11.9894 13.2336 12.4922 12.8629 12.8629C12.4922 13.2336 11.9894 13.4419 11.4651 13.4419C10.9409 13.4419 10.4381 13.2336 10.0673 12.8629C9.69664 12.4922 9.48837 11.9894 9.48837 11.4651ZM22.4874 9.83628C22.596 9.71975 22.727 9.62629 22.8725 9.56146C23.0179 9.49664 23.175 9.46178 23.3342 9.45897C23.4935 9.45616 23.6517 9.48546 23.7994 9.54511C23.947 9.60476 24.0812 9.69355 24.1938 9.80617C24.3065 9.9188 24.3952 10.053 24.4549 10.2006C24.5145 10.3483 24.5438 10.5065 24.541 10.6658C24.5382 10.825 24.5034 10.9821 24.4385 11.1275C24.3737 11.273 24.2803 11.404 24.1637 11.5126L11.5126 24.1637C11.2877 24.3732 10.9903 24.4873 10.6831 24.4819C10.3758 24.4764 10.0826 24.352 9.86534 24.1347C9.64804 23.9174 9.52356 23.6242 9.51814 23.3169C9.51272 23.0097 9.62678 22.7123 9.83628 22.4874L22.4874 9.83628Z" fill="#C6B5BB"/>
</svg>
