<svg width="62" height="60" viewBox="0 0 62 60" fill="none" xmlns="http://www.w3.org/2000/svg">
<rect width="61.9165" height="60" rx="15" fill="#C8BCF6"/>
<path d="M24.1367 42V21.6364H31.0174C32.6149 21.6364 33.9208 21.9247 34.935 22.5014C35.9558 23.0715 36.7115 23.8438 37.202 24.8182C37.6925 25.7926 37.9378 26.8797 37.9378 28.0795C37.9378 29.2794 37.6925 30.3698 37.202 31.3509C36.7181 32.3319 35.9691 33.1141 34.9549 33.6974C33.9406 34.2741 32.6414 34.5625 31.0571 34.5625H26.1253V32.375H30.9776C32.0713 32.375 32.9496 32.1861 33.6125 31.8082C34.2754 31.4304 34.756 30.92 35.0543 30.277C35.3592 29.6274 35.5117 28.8949 35.5117 28.0795C35.5117 27.2642 35.3592 26.535 35.0543 25.892C34.756 25.2491 34.2721 24.7453 33.6026 24.3807C32.9331 24.0095 32.0448 23.8239 30.9378 23.8239H26.6026V42H24.1367Z" fill="black"/>
</svg>
