<svg width="22" height="34" viewBox="0 0 22 34" fill="none" xmlns="http://www.w3.org/2000/svg">
<path d="M18.3407 0H3.65933C2.68882 0 1.75805 0.357497 1.07179 0.993845C0.385536 1.63019 0 2.49327 0 3.3932V30.6051C0 32.4802 1.639 34 3.65933 34H18.3388C19.3095 34 20.2405 33.6426 20.927 33.0063C21.6136 32.37 21.9995 31.5069 22 30.6068V3.3932C22 2.49327 21.6145 1.63019 20.9282 0.993845C20.2419 0.357497 19.3112 0 18.3407 0ZM11 32.3C9.735 32.3 8.70833 31.5401 8.70833 30.6C8.70833 29.6599 9.735 28.9 11 28.9C12.265 28.9 13.2917 29.6599 13.2917 30.6C13.2917 31.5401 12.265 32.3 11 32.3ZM18.3333 27.2H3.66667V3.4H18.3333V27.2Z" fill="#C6B5BB"/>
</svg>
