<svg width="30" height="30" viewBox="0 0 30 30" fill="none" xmlns="http://www.w3.org/2000/svg">
<path d="M25.2576 12.6288C25.2576 5.66532 19.5923 0 12.6288 0C5.66532 0 0 5.66532 0 12.6288C0 19.5923 5.66532 25.2576 12.6288 25.2576C15.355 25.2606 18.0081 24.3767 20.1879 22.7394L25.2576 12.6288ZM27.3316 29.176L20.5414 22.3858L20.2346 22.0789L19.8876 22.3396C17.7946 23.9118 15.247 24.7605 12.6293 24.7576H12.6288C5.94147 24.7576 0.5 19.3161 0.5 12.6288C0.5 5.94147 5.94147 0.5 12.6288 0.5C19.3161 0.5 24.7576 5.94147 24.7576 12.6288V12.6293C24.7605 15.247 23.9118 17.7946 22.3396 19.8876L22.0789 20.2346L22.3858 20.5414L29.176 27.3316C29.393 27.5793 29.5087 27.9 29.4995 28.2296C29.4901 28.5634 29.3534 28.881 29.1172 29.1172C28.881 29.3534 28.5634 29.4901 28.2296 29.4995C27.9 29.5087 27.5793 29.393 27.3316 29.176ZM3.10823 12.6288L3.10823 12.6294C3.11126 15.1533 4.11522 17.573 5.89991 19.3577C7.68459 21.1424 10.1043 22.1463 12.6282 22.1494H12.6288C14.5118 22.1494 16.3525 21.591 17.9181 20.5449C19.4838 19.4987 20.7041 18.0118 21.4247 16.2722C22.1453 14.5325 22.3338 12.6182 21.9664 10.7714C21.5991 8.92462 20.6923 7.22822 19.3609 5.89674C18.0294 4.56526 16.333 3.65852 14.4862 3.29116C12.6394 2.92381 10.7251 3.11235 8.98544 3.83294C7.24578 4.55353 5.75887 5.7738 4.71273 7.33945C3.6666 8.9051 3.10823 10.7458 3.10823 12.6288Z" fill="#B8AED5" stroke="#B8AED5"/>
</svg>
