<svg width="30" height="30" viewBox="0 0 30 30" fill="none" xmlns="http://www.w3.org/2000/svg">
<path opacity="0.3" d="M26.2298 9.89998L25.1503 8.08499L23.1919 8.84999L21.5573 9.49498L20.154 8.44499C19.5526 7.99499 18.9203 7.63499 18.2572 7.37999L16.6226 6.73499L16.3759 5.04L16.0829 3H13.924L13.631 5.025L13.3843 6.71999L11.7497 7.37999C11.1174 7.63499 10.4851 7.99499 9.82205 8.47499L8.43418 9.49498L6.815 8.86499L4.85656 8.08499L3.7771 9.89998L5.44255 11.16L6.815 12.21L6.59911 13.905C6.55284 14.355 6.522 14.7 6.522 15C6.522 15.3 6.55284 15.645 6.59911 16.095L6.815 17.79L5.44255 18.84L3.7771 20.1L4.85656 21.915L6.815 21.15L8.4496 20.505L9.85289 21.555C10.4543 22.005 11.0866 22.365 11.7497 22.62L13.3843 23.265L13.631 24.9599L13.924 26.9999H16.0675L16.3605 24.9749L16.6072 23.28L18.2418 22.635C18.8741 22.38 19.5063 22.02 20.1694 21.54L21.5573 20.52L23.161 21.15L25.1195 21.915L26.1989 20.1L24.5335 18.84L23.161 17.79L23.3769 16.095C23.4386 15.63 23.454 15.315 23.454 15C23.454 14.685 23.4232 14.355 23.3769 13.905L23.161 12.21L24.5335 11.16L26.2298 9.89998ZM15.0034 21C11.5954 21 8.83512 18.315 8.83512 15C8.83512 11.685 11.5954 8.99999 15.0034 8.99999C18.4114 8.99999 21.1718 11.685 21.1718 15C21.1718 18.315 18.4114 21 15.0034 21Z" fill="#9E94C0"/>
<path d="M26.4611 16.47C26.5227 15.99 26.569 15.51 26.569 15C26.569 14.49 26.5227 14.01 26.4611 13.53L29.7148 11.055C30.0078 10.83 30.0849 10.425 29.8999 10.095L26.8157 4.90506C26.7248 4.7503 26.5802 4.63209 26.4079 4.57162C26.2355 4.51115 26.0466 4.51237 25.8751 4.57506L22.0353 6.07506C21.2334 5.47506 20.3698 4.98006 19.4292 4.60506L18.8432 0.630069C18.8177 0.453581 18.7268 0.29221 18.5877 0.176224C18.4486 0.0602371 18.2708 -0.00239659 18.0876 7.01832e-05H11.9192C11.5337 7.01832e-05 11.2099 0.27007 11.1636 0.630069L10.5776 4.60506C9.63697 4.98006 8.7734 5.49006 7.97152 6.07506L4.13174 4.57506C4.04233 4.54555 3.94859 4.53036 3.85417 4.53006C3.59202 4.53006 3.32986 4.66506 3.19107 4.90506L0.106915 10.095C-0.0935556 10.425 -0.00103058 10.83 0.291965 11.055L3.54575 13.53C3.48407 14.01 3.43781 14.505 3.43781 15C3.43781 15.495 3.48407 15.99 3.54575 16.47L0.291965 18.945C-0.00103058 19.17 -0.0781348 19.575 0.106915 19.905L3.19107 25.095C3.28198 25.2498 3.42658 25.368 3.59895 25.4285C3.77133 25.4889 3.96021 25.4877 4.13174 25.425L7.97152 23.925C8.7734 24.525 9.63697 25.02 10.5776 25.395L11.1636 29.37C11.2099 29.73 11.5337 30 11.9192 30H18.0876C18.4731 30 18.7969 29.73 18.8432 29.37L19.4292 25.395C20.3698 25.02 21.2334 24.51 22.0353 23.925L25.8751 25.425C25.9676 25.455 26.0601 25.47 26.1526 25.47C26.4148 25.47 26.677 25.335 26.8157 25.095L29.8999 19.905C30.0849 19.575 30.0078 19.17 29.7148 18.945L26.4611 16.47ZM23.4077 13.905C23.4694 14.37 23.4848 14.685 23.4848 15C23.4848 15.315 23.454 15.645 23.4077 16.095L23.1918 17.79L24.5643 18.84L26.2297 20.1L25.1503 21.915L23.1918 21.15L21.5881 20.52L20.2002 21.54C19.5371 22.02 18.9049 22.38 18.2726 22.635L16.638 23.28L16.3913 24.975L16.0829 27H13.924L13.631 24.975L13.3842 23.28L11.7496 22.635C11.0865 22.365 10.4697 22.02 9.85286 21.57L8.44957 20.52L6.81496 21.165L4.85652 21.93L3.77706 20.115L5.44251 18.855L6.81496 17.805L6.59907 16.11C6.55281 15.645 6.52197 15.3 6.52197 15C6.52197 14.7 6.55281 14.355 6.59907 13.905L6.81496 12.21L5.44251 11.16L3.77706 9.90005L4.85652 8.08505L6.81496 8.85005L8.41873 9.48005L9.8066 8.46005C10.4697 7.98005 11.1019 7.62005 11.7342 7.36505L13.3688 6.72005L13.6155 5.02506L13.924 3.00006H16.0674L16.3604 5.02506L16.6072 6.72005L18.2418 7.36505C18.9049 7.63505 19.5217 7.98005 20.1385 8.43005L21.5418 9.48005L23.1764 8.83505L25.1349 8.07005L26.2143 9.88505L24.5643 11.16L23.1918 12.21L23.4077 13.905ZM15.0034 9.00005C11.5954 9.00005 8.83509 11.685 8.83509 15C8.83509 18.315 11.5954 21 15.0034 21C18.4114 21 21.1717 18.315 21.1717 15C21.1717 11.685 18.4114 9.00005 15.0034 9.00005ZM15.0034 18C13.3071 18 11.9192 16.65 11.9192 15C11.9192 13.35 13.3071 12 15.0034 12C16.6997 12 18.0876 13.35 18.0876 15C18.0876 16.65 16.6997 18 15.0034 18Z" fill="#9E94C0"/>
</svg>
