<svg width="35" height="30" viewBox="0 0 35 30" fill="none" xmlns="http://www.w3.org/2000/svg">
<path fill-rule="evenodd" clip-rule="evenodd" d="M14 0H21C27.5993 0 30.8997 -2.23517e-07 32.949 2.1975C35 4.39313 35 7.92938 35 15C35 22.0706 35 25.6069 32.949 27.8025C30.8997 30 27.5993 30 21 30H14C7.40075 30 4.10025 30 2.051 27.8025C-2.08616e-07 25.6069 0 22.0706 0 15C0 7.92938 -2.08616e-07 4.39313 2.051 2.1975C4.10025 -2.23517e-07 7.40075 0 14 0ZM19.6875 9.375C19.6875 9.00204 19.8258 8.64435 20.0719 8.38063C20.3181 8.11691 20.6519 7.96875 21 7.96875H29.75C30.0981 7.96875 30.4319 8.11691 30.6781 8.38063C30.9242 8.64435 31.0625 9.00204 31.0625 9.375C31.0625 9.74796 30.9242 10.1056 30.6781 10.3694C30.4319 10.6331 30.0981 10.7812 29.75 10.7812H21C20.6519 10.7812 20.3181 10.6331 20.0719 10.3694C19.8258 10.1056 19.6875 9.74796 19.6875 9.375ZM21.4375 15C21.4375 14.627 21.5758 14.2694 21.8219 14.0056C22.0681 13.7419 22.4019 13.5938 22.75 13.5938H29.75C30.0981 13.5938 30.4319 13.7419 30.6781 14.0056C30.9242 14.2694 31.0625 14.627 31.0625 15C31.0625 15.373 30.9242 15.7306 30.6781 15.9944C30.4319 16.2581 30.0981 16.4062 29.75 16.4062H22.75C22.4019 16.4062 22.0681 16.2581 21.8219 15.9944C21.5758 15.7306 21.4375 15.373 21.4375 15ZM23.1875 20.625C23.1875 20.252 23.3258 19.8944 23.5719 19.6306C23.8181 19.3669 24.1519 19.2188 24.5 19.2188H29.75C30.0981 19.2188 30.4319 19.3669 30.6781 19.6306C30.9242 19.8944 31.0625 20.252 31.0625 20.625C31.0625 20.998 30.9242 21.3556 30.6781 21.6194C30.4319 21.8831 30.0981 22.0312 29.75 22.0312H24.5C24.1519 22.0312 23.8181 21.8831 23.5719 21.6194C23.3258 21.3556 23.1875 20.998 23.1875 20.625ZM15.75 9.375C15.75 10.3696 15.3813 11.3234 14.7249 12.0266C14.0685 12.7299 13.1783 13.125 12.25 13.125C11.3217 13.125 10.4315 12.7299 9.77513 12.0266C9.11875 11.3234 8.75 10.3696 8.75 9.375C8.75 8.38044 9.11875 7.42661 9.77513 6.72335C10.4315 6.02009 11.3217 5.625 12.25 5.625C13.1783 5.625 14.0685 6.02009 14.7249 6.72335C15.3813 7.42661 15.75 8.38044 15.75 9.375ZM12.25 24.375C19.25 24.375 19.25 22.6969 19.25 20.625C19.25 18.5531 16.1175 16.875 12.25 16.875C8.3825 16.875 5.25 18.5531 5.25 20.625C5.25 22.6969 5.25 24.375 12.25 24.375Z" fill="black"/>
</svg>
