<svg width="42" height="29" viewBox="0 0 42 29" fill="none" xmlns="http://www.w3.org/2000/svg">
<path d="M6.3 4.14286V18.6429C6.3 20.9279 8.18344 22.7857 10.5 22.7857H37.8C40.1166 22.7857 42 20.9279 42 18.6429V4.14286C42 1.85781 40.1166 0 37.8 0H10.5C8.18344 0 6.3 1.85781 6.3 4.14286ZM10.5 14.5C12.8166 14.5 14.7 16.3578 14.7 18.6429H10.5V14.5ZM14.7 4.14286C14.7 6.4279 12.8166 8.28571 10.5 8.28571V4.14286H14.7ZM37.8 14.5V18.6429H33.6C33.6 16.3578 35.4834 14.5 37.8 14.5ZM33.6 4.14286H37.8V8.28571C35.4834 8.28571 33.6 6.4279 33.6 4.14286ZM18.9 11.3929C18.9 10.0194 19.4531 8.70222 20.4377 7.73105C21.4223 6.75988 22.7576 6.21429 24.15 6.21429C25.5424 6.21429 26.8777 6.75988 27.8623 7.73105C28.8469 8.70222 29.4 10.0194 29.4 11.3929C29.4 12.7663 28.8469 14.0835 27.8623 15.0547C26.8777 16.0258 25.5424 16.5714 24.15 16.5714C22.7576 16.5714 21.4223 16.0258 20.4377 15.0547C19.4531 14.0835 18.9 12.7663 18.9 11.3929ZM3.15 5.69643C3.15 4.83549 2.44781 4.14286 1.575 4.14286C0.702187 4.14286 0 4.83549 0 5.69643V21.2321C0 25.5239 3.52406 29 7.875 29H34.125C34.9978 29 35.7 28.3074 35.7 27.4464C35.7 26.5855 34.9978 25.8929 34.125 25.8929H7.875C5.26312 25.8929 3.15 23.8085 3.15 21.2321V5.69643Z" fill="#C6B5BB"/>
</svg>
