<svg width="30" height="30" viewBox="0 0 30 30" fill="none" xmlns="http://www.w3.org/2000/svg">
<path fill-rule="evenodd" clip-rule="evenodd" d="M30 20.7687C30 27.1372 23.7498 30 15 30C6.25019 30 0 27.1372 0 20.8137C0 13.8901 3.75058 10.3823 11.2494 6.87449L8.59431 2.30811C8.43589 2.07939 8.34767 1.81526 8.33907 1.54389C8.33046 1.27252 8.40178 1.00408 8.54543 0.767199C8.68908 0.530314 8.89967 0.333866 9.15475 0.198802C9.40982 0.0637377 9.69982 -0.00487857 9.99381 0.000269809H20.5934C20.8689 0.00677973 21.1382 0.0779193 21.3758 0.206993C21.6133 0.336067 21.8114 0.518831 21.9514 0.738083C22.0914 0.957336 22.1686 1.20587 22.1759 1.46028C22.1831 1.7147 22.1202 1.96664 21.9929 2.19239L18.7506 6.87449C26.2471 10.3352 30 13.843 30 20.7687ZM16.4506 10.4723C16.4506 10.1171 16.2977 9.77647 16.0257 9.52531C15.7537 9.27415 15.3847 9.13304 15 9.13304C14.6153 9.13304 14.2463 9.27415 13.9743 9.52531C13.7023 9.77647 13.5494 10.1171 13.5494 10.4723V11.8159C12.5663 11.8508 11.6307 12.216 10.9185 12.8428C10.2064 13.4696 9.76651 14.3148 9.68159 15.2199C9.59668 16.1249 9.87254 17.0274 10.4574 17.7579C11.0422 18.4884 11.8958 18.9967 12.8578 19.1872L16.2765 19.8772C16.6269 19.9469 16.937 20.1338 17.1469 20.4021C17.3568 20.6703 17.4518 21.0008 17.4135 21.3298C17.3751 21.6588 17.2062 21.9631 16.9392 22.1839C16.6723 22.4048 16.3262 22.5266 15.9678 22.5258H14.0322C13.7321 22.5262 13.4393 22.4407 13.194 22.2811C12.9488 22.1214 12.7632 21.8955 12.6628 21.6344C12.6042 21.463 12.5089 21.3044 12.3825 21.1678C12.2561 21.0312 12.1013 20.9194 11.9271 20.8392C11.753 20.759 11.5632 20.712 11.369 20.701C11.1747 20.6899 10.9801 20.715 10.7966 20.7748C10.6131 20.8347 10.4446 20.928 10.3009 21.0492C10.1573 21.1704 10.0416 21.3171 9.9606 21.4804C9.87963 21.6438 9.83509 21.8205 9.82963 22.0001C9.82417 22.1797 9.85791 22.3585 9.92883 22.5258C10.2016 23.2374 10.6859 23.8638 11.3262 24.3333C11.9664 24.8029 12.7369 25.0965 13.5494 25.1808V26.5436C13.5494 26.8988 13.7023 27.2394 13.9743 27.4906C14.2463 27.7418 14.6153 27.8829 15 27.8829C15.3847 27.8829 15.7537 27.7418 16.0257 27.4906C16.2977 27.2394 16.4506 26.8988 16.4506 26.5436V25.1808C17.4747 25.0733 18.4243 24.6338 19.1304 23.9406C19.8366 23.2474 20.2535 22.3454 20.3069 21.3951C20.3604 20.4447 20.047 19.5077 19.4224 18.7507C18.7979 17.9936 17.9027 17.4657 16.8962 17.2608L13.4775 16.5708C13.2001 16.5184 12.9539 16.3724 12.787 16.1612C12.6201 15.9501 12.5444 15.6891 12.5749 15.4292C12.6054 15.1693 12.7397 14.9293 12.9517 14.756C13.1637 14.5827 13.4381 14.4887 13.7212 14.4923H15.9678C16.2681 14.4909 16.5614 14.576 16.8069 14.7358C17.0523 14.8956 17.2377 15.1221 17.3371 15.3837C17.4721 15.7103 17.7401 15.9752 18.0837 16.1218C18.4274 16.2685 18.8195 16.2853 19.1764 16.1687C19.5333 16.052 19.8267 15.8112 19.9939 15.4976C20.161 15.1839 20.1888 14.8224 20.0712 14.4901C19.7987 13.7785 19.3145 13.1521 18.6741 12.6829C18.0338 12.2137 17.2631 11.9206 16.4506 11.8373V10.4723Z" fill="black"/>
</svg>
